<svg xmlns="http://www.w3.org/2000/svg"  viewBox="0 0 64 64" width="512px" height="512px"><linearGradient id="67qE~_15CNSXWi2JHjdyVa" x1="32" x2="32" y1="6.112" y2="57.779" gradientUnits="userSpaceOnUse"><stop offset="0" stop-color="#1a6dff"/><stop offset="1" stop-color="#c822ff"/></linearGradient><path fill="url(#67qE~_15CNSXWi2JHjdyVa)" d="M41.749,57c-1.772,0-3.229-0.281-4.771-0.578c-1.642-0.317-3.34-0.645-5.589-0.645 c-1.477,0-2.516,0.228-3.719,0.49C26.102,56.611,24.323,57,21.191,57c-4.85,0-9.744-3.097-9.745-10.014 c-0.001-5.52,4.521-8.836,6.006-9.926c0.13-0.096,0.237-0.174,0.314-0.235c2.576-2.029,3.497-3.156,6.021-6.728 c1.881-2.659,3.893-4.43,7.602-4.43c3.803,0,6.126,2.554,8.07,5.313c3.29,4.669,5.702,6.796,7.64,8.505l0.345,0.305 c2.049,1.814,3.889,3.753,3.889,7.498C51.333,51.983,48.815,57,41.749,57z M31.39,53.777c2.439,0,4.314,0.361,5.967,0.681 C38.803,54.736,40.168,55,41.749,55c6.845,0,7.584-5.394,7.584-7.712c0-2.667-1.083-4.113-3.214-6l-0.342-0.303 c-2.017-1.778-4.527-3.991-7.952-8.853c-2.293-3.255-4.037-4.465-6.435-4.465c-2.872,0-4.363,1.314-5.969,3.584 c-2.622,3.71-3.716,5.017-6.416,7.145c-0.092,0.072-0.217,0.165-0.37,0.276c-1.419,1.041-5.19,3.807-5.189,8.313 C13.447,52.901,17.619,55,21.191,55c2.916,0,4.582-0.364,6.053-0.687C28.505,54.038,29.696,53.777,31.39,53.777z M48.676,37.445 h-0.09C42,37.401,42,31.78,42,29.38c0-7.108,3.363-8.601,6.185-8.601c5.084,0,6.795,5.002,6.795,7.284l0.016,0.863 c0.111,6.919-3.229,8.45-6.051,8.516L48.676,37.445z M48.185,22.779c-1.796,0-4.185,0.685-4.185,6.601 c0,3.18,0.352,6.037,4.602,6.065h0.074l0.219-0.003c2.869-0.066,4.171-2.127,4.101-6.486l-0.009-0.455 c-0.004-0.17-0.007-0.317-0.007-0.438C52.98,27.015,52.127,22.779,48.185,22.779z M15.352,33.779l-0.153-0.002 c-4.204-0.12-6.155-4.658-6.199-7.843c-0.006-0.502,0.033-0.966,0.114-1.382c0.014-0.194,0.733-6.964,5.67-7.419 c0.16-0.015,0.319-0.021,0.476-0.021c3.609,0.062,6.309,3.89,6.617,6.498c0.04,0.366,0.122,1.111,0.125,2.019 c0.011,4.402-1.835,7.237-5.197,7.984C16.313,33.724,15.824,33.779,15.352,33.779z M15.292,19.113 c-0.134,0-0.229,0.004-0.325,0.013c-3.292,0.303-3.871,5.663-3.876,5.717c-0.069,0.375-0.095,0.703-0.09,1.066 c0.033,2.387,1.374,5.786,4.252,5.868l0.1,0.002c0.326,0,0.669-0.04,1.019-0.118c2.418-0.536,3.639-2.563,3.631-6.026 c-0.002-0.8-0.073-1.449-0.112-1.797c-0.193-1.636-2.081-4.682-4.585-4.725C15.3,19.113,15.295,19.113,15.292,19.113z M39.367,24 c-0.247,0-0.499-0.017-0.757-0.053c-3.323-0.452-5.207-3.143-5.165-7.38c0.005-0.475,0.034-0.956,0.082-1.438 c0.312-3.079,3.457-7.796,6.743-7.796c0.261,0,0.52,0.031,0.769,0.092c2.858,0.694,5.385,4.281,5.406,7.676 c0.003,0.355-0.022,0.711-0.075,1.054c-0.551,3.693-3.119,7.7-6.793,7.841L39.367,24z M40.271,9.334 c-1.922,0-4.513,3.629-4.753,5.996c-0.042,0.422-0.068,0.843-0.072,1.258c-0.032,3.253,1.125,5.063,3.439,5.378 C39.052,21.99,39.211,22,39.367,22l0.133-0.002c2.758-0.105,4.521-3.655,4.892-6.143c0.037-0.241,0.055-0.489,0.053-0.74 c-0.015-2.474-1.9-5.266-3.879-5.746C40.471,9.346,40.372,9.334,40.271,9.334z M26.505,22.779c-3.586,0-6.503-3.739-6.503-8.336 c0-4.594,2.917-8.331,6.503-8.331c3.582,0,6.496,3.737,6.496,8.331C33.001,19.04,30.087,22.779,26.505,22.779z M26.505,8.112 c-2.483,0-4.503,2.84-4.503,6.331c0,3.493,2.02,6.336,4.503,6.336c2.479,0,4.496-2.843,4.496-6.336 C31.001,10.952,28.984,8.112,26.505,8.112z"/><g><linearGradient id="67qE~_15CNSXWi2JHjdyVb" x1="25.886" x2="25.886" y1="30.083" y2="53.167" gradientUnits="userSpaceOnUse"><stop offset="0" stop-color="#6dc7ff"/><stop offset="1" stop-color="#e6abff"/></linearGradient><path fill="url(#67qE~_15CNSXWi2JHjdyVb)" d="M23.769,45.205c0,1.573,1.21,2.661,1.935,2.661h2.298v-5.323h-2.298 C24.979,42.543,23.769,43.632,23.769,45.205z"/><linearGradient id="67qE~_15CNSXWi2JHjdyVc" x1="31.39" x2="31.39" y1="30.083" y2="53.167" gradientUnits="userSpaceOnUse"><stop offset="0" stop-color="#6dc7ff"/><stop offset="1" stop-color="#e6abff"/></linearGradient><path fill="url(#67qE~_15CNSXWi2JHjdyVc)" d="M44.793,42.785l-0.339-0.299c-2.096-1.848-4.704-4.147-8.265-9.202 c-2.131-3.024-3.374-3.616-4.8-3.616c-1.86,0-2.833,0.614-4.336,2.739c-2.71,3.835-3.934,5.293-6.811,7.561 c-0.106,0.084-0.25,0.189-0.424,0.317c-1.196,0.878-4.373,3.208-4.372,6.7C15.447,52.566,19.844,53,21.191,53 c2.7,0,4.187-0.325,5.625-0.64c1.31-0.287,2.664-0.583,4.573-0.583c2.631,0,4.604,0.381,6.346,0.717 C39.144,52.766,40.359,53,41.749,53c3.706,0,5.584-1.922,5.584-5.712C47.333,45.348,46.584,44.371,44.793,42.785z M30.543,50.043 H25.1c-2.056-0.363-3.871-2.177-3.871-4.839c0-0.041,0.001-0.08,0.001-0.121c-0.001-2.54,1.814-4.355,3.87-4.718h2.903v-3.871h2.54 V50.043z M40.583,50.043h-6.169c-2.54-0.605-2.54-2.419-2.54-2.419v-7.258h2.54v6.532c0.121,0.605,0.968,0.726,0.968,0.726h2.661 v-7.258h2.54V50.043z"/></g></svg>